# xmcd
#
# Track frame offsets: 
#        150
#        18882
#        34232
#        48622
#        63197
#        80657
#        97745
#        110062
#        125155
#        141540
#
# Disc length: 2056 seconds
#
# Revision: 0
# Processed by: cddbd v1.5.1PL0 Copyright (c) Steve Scherf et al.
# Submitted via: ExactAudioCopy v0.90b4
#
DISCID=8c08060a
DTITLE=Tanya Tucker - Love Songs
DYEAR=1996
DGENRE=Country
TTITLE0=Two Sparrows In A Hurricane
TTITLE1=Hangin' In
TTITLE2=I'll Take Today
TTITLE3=I'm In Love And He's In Dallas
TTITLE4=As Long As There's A Heartbeat
TTITLE5=Love Me Like You Used To
TTITLE6=Strong Enough To Bend
TTITLE7=Your Love Amazes Me
TTITLE8=Right Aout Now
TTITLE9=Would You Lay With Me (In A Field Of Stone)
EXTD=
EXTT0=
EXTT1=
EXTT2=
EXTT3=
EXTT4=
EXTT5=
EXTT6=
EXTT7=
EXTT8=
EXTT9=
PLAYORDER=
